<?xml version="1.0" standalone="no"?><!DOCTYPE svg PUBLIC "-//W3C//DTD SVG 1.1//EN" "http://www.w3.org/Graphics/SVG/1.1/DTD/svg11.dtd"><svg t="1595392038675" class="icon" viewBox="0 0 1024 1024" version="1.1" xmlns="http://www.w3.org/2000/svg" p-id="4347" xmlns:xlink="http://www.w3.org/1999/xlink" width="200" height="200"><defs><style type="text/css"></style></defs><path d="M484 912m-48 0a48 48 0 1 0 96 0 48 48 0 1 0-96 0Z" fill="#1296db" p-id="4348"></path><path d="M740 912m-48 0a48 48 0 1 0 96 0 48 48 0 1 0-96 0Z" fill="#1296db" p-id="4349"></path><path d="M957.138 254.969C944.927 239.101 926.439 230 906.417 230H242.084l-31.813-118.362c-7.499-27.901-32.915-47.388-61.807-47.388H95c-17.673 0-32 14.327-32 32s14.327 32 32 32h53.465l174.264 648.362C330.228 804.513 355.644 824 384.535 824H828c17.673 0 32-14.327 32-32s-14.327-32-32-32H384.535l-30.909-115h476.748c28.999 0 54.438-19.577 61.865-47.608l76.043-287c5.128-19.354 1.067-39.555-11.144-55.423zM830.374 581h-493.95l-77.138-287h647.131l-76.043 287z" fill="#1296db" p-id="4350"></path></svg>